<mxfile host="app.diagrams.net" modified="2021-12-16T08:37:01.668Z" agent="5.0 (Windows NT 10.0; Win64; x64) AppleWebKit/537.36 (KHTML, like Gecko) Chrome/94.0.4606.61 Safari/537.36" etag="QZ2zCWLGFnImV4o-2B9o" version="15.9.6" type="github">
  <diagram id="kyf7E3XTBa50trnF0V3p" name="Page-1">
    <mxGraphModel dx="1422" dy="762" grid="1" gridSize="10" guides="1" tooltips="1" connect="1" arrows="1" fold="1" page="1" pageScale="1" pageWidth="827" pageHeight="1169" math="0" shadow="0">
      <root>
        <mxCell id="0" />
        <mxCell id="1" parent="0" />
        <mxCell id="AWK98eheQ9b-UINBrwdk-20" value="" style="ellipse;shape=cloud;whiteSpace=wrap;html=1;sketch=0;fillStyle=auto;fontFamily=Comic Sans MS;verticalAlign=bottom;" vertex="1" parent="1">
          <mxGeometry x="390" y="200" width="414" height="380" as="geometry" />
        </mxCell>
        <mxCell id="AWK98eheQ9b-UINBrwdk-4" value="" style="rounded=0;whiteSpace=wrap;html=1;sketch=1;" vertex="1" parent="1">
          <mxGeometry x="80" y="160" width="160" height="400" as="geometry" />
        </mxCell>
        <mxCell id="AWK98eheQ9b-UINBrwdk-5" value="&lt;font face=&quot;Comic Sans MS&quot;&gt;栈帧&lt;br&gt;&lt;/font&gt;&lt;div&gt;&lt;span style=&quot;font-size: 9.00337pt&quot;&gt;&lt;font face=&quot;Comic Sans MS&quot;&gt;Stack Frame&lt;/font&gt;&lt;/span&gt;&lt;/div&gt;" style="rounded=1;whiteSpace=wrap;html=1;sketch=1;fillColor=#dae8fc;strokeColor=#6c8ebf;fillStyle=cross-hatch;" vertex="1" parent="1">
          <mxGeometry x="100" y="480" width="120" height="60" as="geometry" />
        </mxCell>
        <mxCell id="AWK98eheQ9b-UINBrwdk-6" value="&lt;font face=&quot;Comic Sans MS&quot;&gt;栈帧&lt;br&gt;&lt;/font&gt;&lt;div&gt;&lt;span style=&quot;font-size: 9.00337pt&quot;&gt;&lt;font face=&quot;Comic Sans MS&quot;&gt;Stack Frame&lt;/font&gt;&lt;/span&gt;&lt;/div&gt;" style="rounded=1;whiteSpace=wrap;html=1;sketch=1;fillColor=#dae8fc;strokeColor=#6c8ebf;fillStyle=cross-hatch;" vertex="1" parent="1">
          <mxGeometry x="100" y="410" width="120" height="60" as="geometry" />
        </mxCell>
        <mxCell id="AWK98eheQ9b-UINBrwdk-7" value="&lt;font face=&quot;Comic Sans MS&quot;&gt;栈帧&lt;br&gt;&lt;/font&gt;&lt;div&gt;&lt;span style=&quot;font-size: 9.00337pt&quot;&gt;&lt;font face=&quot;Comic Sans MS&quot;&gt;Stack Frame&lt;/font&gt;&lt;/span&gt;&lt;/div&gt;" style="rounded=1;whiteSpace=wrap;html=1;sketch=1;fillColor=#dae8fc;strokeColor=#6c8ebf;fillStyle=cross-hatch;" vertex="1" parent="1">
          <mxGeometry x="100" y="340" width="120" height="60" as="geometry" />
        </mxCell>
        <mxCell id="AWK98eheQ9b-UINBrwdk-8" value="&lt;font face=&quot;Comic Sans MS&quot;&gt;栈帧&lt;br&gt;&lt;/font&gt;&lt;div&gt;&lt;span style=&quot;font-size: 9.00337pt&quot;&gt;&lt;font face=&quot;Comic Sans MS&quot;&gt;Stack Frame&lt;/font&gt;&lt;/span&gt;&lt;/div&gt;" style="rounded=1;whiteSpace=wrap;html=1;sketch=1;fillColor=#dae8fc;strokeColor=#6c8ebf;fillStyle=cross-hatch;" vertex="1" parent="1">
          <mxGeometry x="100" y="270" width="120" height="60" as="geometry" />
        </mxCell>
        <mxCell id="AWK98eheQ9b-UINBrwdk-9" value="&lt;font face=&quot;Comic Sans MS&quot;&gt;栈帧&lt;br&gt;&lt;/font&gt;&lt;div&gt;&lt;span style=&quot;font-size: 9.00337pt&quot;&gt;&lt;font face=&quot;Comic Sans MS&quot;&gt;Stack Frame&lt;/font&gt;&lt;/span&gt;&lt;/div&gt;" style="rounded=1;whiteSpace=wrap;html=1;sketch=1;fillColor=#dae8fc;strokeColor=#6c8ebf;fillStyle=cross-hatch;" vertex="1" parent="1">
          <mxGeometry x="100" y="200" width="120" height="60" as="geometry" />
        </mxCell>
        <mxCell id="AWK98eheQ9b-UINBrwdk-11" value="&lt;h1&gt;&lt;br&gt;&lt;/h1&gt;" style="rounded=1;whiteSpace=wrap;html=1;sketch=1;fillStyle=cross-hatch;fontFamily=Comic Sans MS;fillColor=#dae8fc;strokeColor=#6c8ebf;verticalAlign=top;" vertex="1" parent="1">
          <mxGeometry x="460" y="310" width="280" height="160" as="geometry" />
        </mxCell>
        <mxCell id="AWK98eheQ9b-UINBrwdk-12" value="局部变量" style="rounded=1;whiteSpace=wrap;html=1;sketch=1;fillStyle=cross-hatch;fontFamily=Comic Sans MS;fillColor=#d5e8d4;strokeColor=#82b366;" vertex="1" parent="1">
          <mxGeometry x="494" y="350" width="96" height="30" as="geometry" />
        </mxCell>
        <mxCell id="AWK98eheQ9b-UINBrwdk-13" value="操作数栈" style="rounded=1;whiteSpace=wrap;html=1;sketch=1;fillStyle=cross-hatch;fontFamily=Comic Sans MS;fillColor=#ffe6cc;strokeColor=#d79b00;" vertex="1" parent="1">
          <mxGeometry x="620" y="350" width="96" height="30" as="geometry" />
        </mxCell>
        <mxCell id="AWK98eheQ9b-UINBrwdk-14" value="动态链接" style="rounded=1;whiteSpace=wrap;html=1;sketch=1;fillStyle=cross-hatch;fontFamily=Comic Sans MS;fillColor=#f8cecc;strokeColor=#b85450;" vertex="1" parent="1">
          <mxGeometry x="494" y="390" width="96" height="30" as="geometry" />
        </mxCell>
        <mxCell id="AWK98eheQ9b-UINBrwdk-15" value="方法出口" style="rounded=1;whiteSpace=wrap;html=1;sketch=1;fillStyle=cross-hatch;fontFamily=Comic Sans MS;fillColor=#e1d5e7;strokeColor=#9673a6;" vertex="1" parent="1">
          <mxGeometry x="620" y="390" width="96" height="30" as="geometry" />
        </mxCell>
        <mxCell id="AWK98eheQ9b-UINBrwdk-17" value="其他信息" style="rounded=1;whiteSpace=wrap;html=1;sketch=1;fillStyle=cross-hatch;fontFamily=Comic Sans MS;fillColor=#d0cee2;strokeColor=#56517e;" vertex="1" parent="1">
          <mxGeometry x="552" y="430" width="96" height="30" as="geometry" />
        </mxCell>
        <mxCell id="AWK98eheQ9b-UINBrwdk-18" value="" style="ellipse;shape=cloud;whiteSpace=wrap;html=1;sketch=1;fillStyle=cross-hatch;fontFamily=Comic Sans MS;" vertex="1" parent="1">
          <mxGeometry x="270" y="220" width="50" height="50" as="geometry" />
        </mxCell>
        <mxCell id="AWK98eheQ9b-UINBrwdk-19" value="" style="ellipse;shape=cloud;whiteSpace=wrap;html=1;sketch=1;fillStyle=cross-hatch;fontFamily=Comic Sans MS;" vertex="1" parent="1">
          <mxGeometry x="344" y="240" width="70" height="70" as="geometry" />
        </mxCell>
        <mxCell id="AWK98eheQ9b-UINBrwdk-21" value="" style="ellipse;shape=cloud;whiteSpace=wrap;html=1;sketch=0;fillStyle=auto;fontFamily=Comic Sans MS;" vertex="1" parent="1">
          <mxGeometry x="250" y="220" width="10" height="10" as="geometry" />
        </mxCell>
        <mxCell id="AWK98eheQ9b-UINBrwdk-23" value="&lt;h2&gt;栈帧&lt;/h2&gt;" style="text;html=1;align=center;verticalAlign=middle;resizable=0;points=[];autosize=1;strokeColor=none;fillColor=none;fontFamily=Comic Sans MS;" vertex="1" parent="1">
          <mxGeometry x="572" y="305" width="50" height="50" as="geometry" />
        </mxCell>
        <mxCell id="AWK98eheQ9b-UINBrwdk-24" value="&lt;h2&gt;虚拟机栈&lt;/h2&gt;" style="text;html=1;align=center;verticalAlign=middle;resizable=0;points=[];autosize=1;strokeColor=none;fillColor=none;fontFamily=Comic Sans MS;" vertex="1" parent="1">
          <mxGeometry x="115" y="155" width="90" height="50" as="geometry" />
        </mxCell>
      </root>
    </mxGraphModel>
  </diagram>
</mxfile>
